<svg xmlns="http://www.w3.org/2000/svg" viewBox="0 0 960 540">
  <rect width="960" height="540" fill="#f4efe6"/>
  <rect x="30" y="30" width="900" height="480" rx="18" fill="#fffaf2" stroke="#d8cdb8"/>
  <rect x="55" y="55" width="70" height="430" rx="16" fill="#1f4b99"/>
  <circle cx="90" cy="120" r="18" fill="#ffd166"/>
  <circle cx="90" cy="180" r="18" fill="#f7f5ef"/>
  <circle cx="90" cy="240" r="18" fill="#f7f5ef"/>
  <rect x="145" y="55" width="760" height="62" rx="12" fill="#e9dcc6"/>
  <rect x="170" y="145" width="280" height="310" rx="16" fill="#f8f1e2" stroke="#d8cdb8"/>
  <rect x="480" y="145" width="395" height="310" rx="16" fill="#ffffff" stroke="#d8cdb8"/>
  <text x="172" y="95" font-family="Segoe UI, Arial, sans-serif" font-size="28" fill="#1d2a38">Copilot Tracker in the Activity Bar</text>
  <text x="178" y="190" font-family="Segoe UI, Arial, sans-serif" font-size="24" fill="#1d2a38">Usage</text>
  <text x="178" y="230" font-family="Segoe UI, Arial, sans-serif" font-size="20" fill="#4f5d6b">Today • 3 prompts</text>
  <text x="178" y="270" font-family="Segoe UI, Arial, sans-serif" font-size="20" fill="#4f5d6b">This Month • 18 prompts</text>
  <text x="178" y="330" font-family="Segoe UI, Arial, sans-serif" font-size="20" fill="#1d2a38">Recent prompts</text>
  <text x="505" y="190" font-family="Segoe UI, Arial, sans-serif" font-size="26" fill="#1d2a38">Select this icon to open the extension</text>
  <path d="M350 235 C 420 235, 420 120, 120 120" fill="none" stroke="#b3472e" stroke-width="6"/>
  <polygon points="122,110 95,121 120,133" fill="#b3472e"/>
</svg>
